<svg xmlns="http://www.w3.org/2000/svg" width="50" height="50" viewBox="0 0 50 50">
  <g id="グループ_6" data-name="グループ 6" transform="translate(-390 -2951)">
    <rect id="長方形_11" data-name="長方形 11" width="50" height="50" transform="translate(390 2951)" fill="#bbb" opacity="0.002"/>
    <path id="instagram" d="M21.783,42.47a11.2,11.2,0,1,0,11.2,11.2A11.186,11.186,0,0,0,21.783,42.47Zm0,18.487a7.284,7.284,0,1,1,7.284-7.284,7.3,7.3,0,0,1-7.284,7.284ZM36.058,42.012A2.613,2.613,0,1,1,33.445,39.4,2.607,2.607,0,0,1,36.058,42.012Zm7.42,2.652c-.166-3.5-.965-6.6-3.53-9.156s-5.655-3.354-9.156-3.53c-3.608-.2-14.421-.2-18.029,0-3.491.166-6.591.965-9.156,3.52S.254,41.154.079,44.654c-.2,3.608-.2,14.421,0,18.029.166,3.5.965,6.6,3.53,9.156s5.655,3.354,9.156,3.53c3.608.2,14.421.2,18.029,0,3.5-.166,6.6-.965,9.156-3.53s3.354-5.655,3.53-9.156c.2-3.608.2-14.411,0-18.019Zm-4.661,21.89a7.374,7.374,0,0,1-4.154,4.154c-2.876,1.141-9.7.878-12.88.878s-10.014.254-12.88-.878a7.374,7.374,0,0,1-4.154-4.154c-1.141-2.876-.878-9.7-.878-12.88s-.254-10.014.878-12.88A7.374,7.374,0,0,1,8.9,36.639c2.876-1.141,9.7-.878,12.88-.878s10.014-.254,12.88.878a7.374,7.374,0,0,1,4.154,4.154c1.141,2.876.878,9.7.878,12.88S39.958,63.687,38.817,66.554Z" transform="translate(393.075 2922.175)" fill="#fff"/>
  </g>
</svg>
