<svg xmlns="http://www.w3.org/2000/svg" width="50" height="50" viewBox="0 0 50 50">
  <g id="icon_youtube" transform="translate(-270 -2951)">
    <rect id="長方形_9" data-name="長方形 9" width="50" height="50" transform="translate(270 2951)" fill="#bbb" opacity="0.002"/>
    <path id="youtube" d="M54.426,68.438a5.068,5.068,0,0,0-3.566-3.589C47.715,64,35.1,64,35.1,64s-12.613,0-15.759.848a5.068,5.068,0,0,0-3.566,3.589c-.843,3.166-.843,9.772-.843,9.772s0,6.606.843,9.772a4.993,4.993,0,0,0,3.566,3.532c3.146.848,15.759.848,15.759.848s12.613,0,15.759-.848a4.993,4.993,0,0,0,3.566-3.532c.843-3.166.843-9.772.843-9.772S55.269,71.6,54.426,68.438ZM30.976,84.207V72.212l10.542,6Z" transform="translate(257.067 2898)" fill="#fff"/>
  </g>
</svg>
