<svg xmlns="http://www.w3.org/2000/svg" width="50" height="50" viewBox="0 0 50 50">
  <g id="icon_twitter" transform="translate(-630 -2951)">
    <rect id="長方形_12" data-name="長方形 12" width="50" height="50" transform="translate(630 2951)" fill="#bbb" opacity="0.002"/>
    <path id="twitter" d="M29.493,54.736c.021.292.021.584.021.876,0,8.906-6.779,19.168-19.168,19.168A19.038,19.038,0,0,1,0,71.755a13.933,13.933,0,0,0,1.627.083A13.492,13.492,0,0,0,9.991,68.96a6.749,6.749,0,0,1-6.3-4.672,8.5,8.5,0,0,0,1.272.1,7.125,7.125,0,0,0,1.773-.229,6.738,6.738,0,0,1-5.4-6.612v-.083a6.785,6.785,0,0,0,3.045.855,6.747,6.747,0,0,1-2.086-9.01,19.15,19.15,0,0,0,13.891,7.05,7.605,7.605,0,0,1-.167-1.543,6.743,6.743,0,0,1,11.659-4.61,13.264,13.264,0,0,0,4.276-1.627A6.719,6.719,0,0,1,28.992,52.3a13.506,13.506,0,0,0,3.879-1.043A14.482,14.482,0,0,1,29.493,54.736Z" transform="translate(639 2914.918)" fill="#fff"/>
  </g>
</svg>
