<svg xmlns="http://www.w3.org/2000/svg" width="50" height="50" viewBox="0 0 50 50">
  <g id="グループ_2" data-name="グループ 2" transform="translate(-1110 -12)">
    <rect id="長方形_25" data-name="長方形 25" width="50" height="50" transform="translate(1110 12)" fill="#5c4f4f" opacity="0.002"/>
    <path id="spotify" d="M17.5,8A17.5,17.5,0,1,0,35,25.5,17.506,17.506,0,0,0,17.5,8Zm7.106,25.749a1.346,1.346,0,0,1-.755-.254c-4.4-2.653-9.526-2.766-14.586-1.729a4.556,4.556,0,0,1-.84.183A1.1,1.1,0,0,1,7.31,30.835a1.118,1.118,0,0,1,.96-1.185c5.779-1.277,11.685-1.164,16.724,1.849a1.193,1.193,0,0,1,.684,1.164,1.066,1.066,0,0,1-1.073,1.087Zm1.9-4.629a1.742,1.742,0,0,1-.868-.3A22.868,22.868,0,0,0,8.8,26.749a2.906,2.906,0,0,1-.84.183,1.37,1.37,0,0,1-1.369-1.369A1.388,1.388,0,0,1,7.684,24.1a23.735,23.735,0,0,1,6.9-.96,24.7,24.7,0,0,1,12.49,3.211,1.471,1.471,0,0,1,.8,1.39A1.367,1.367,0,0,1,26.5,29.12Zm2.188-5.377a1.623,1.623,0,0,1-.91-.275c-5.024-3-14.007-3.719-19.822-2.1a3.352,3.352,0,0,1-.91.183A1.629,1.629,0,0,1,5.405,19.89,1.667,1.667,0,0,1,6.633,18.2a29.575,29.575,0,0,1,8.291-1.073c5.151,0,10.549,1.073,14.494,3.373a1.657,1.657,0,0,1,.91,1.595,1.635,1.635,0,0,1-1.637,1.644Z" transform="translate(1117.866 15)" fill="#fff"/>
  </g>
</svg>
