<svg xmlns="http://www.w3.org/2000/svg" width="50" height="50" viewBox="0 0 50 50">
  <g id="グループ_1" data-name="グループ 1" transform="translate(-1055 -12)">
    <rect id="長方形_24" data-name="長方形 24" width="50" height="50" transform="translate(1055 12)" fill="#5c4f4f" opacity="0.002"/>
    <path id="apple" d="M29.082,50.866a7.441,7.441,0,0,1,3.985-6.759,8.563,8.563,0,0,0-6.751-3.555c-2.829-.223-5.922,1.65-7.054,1.65-1.2,0-3.937-1.57-6.089-1.57C8.726,40.7,4,44.179,4,51.248A19.865,19.865,0,0,0,5.148,57.72c1.02,2.925,4.7,10.1,8.544,9.979,2.009-.048,3.427-1.427,6.041-1.427,2.535,0,3.85,1.427,6.089,1.427C29.7,67.643,33.028,61.123,34,58.19a7.9,7.9,0,0,1-4.918-7.325ZM24.571,37.778A7.507,7.507,0,0,0,26.484,32a8.451,8.451,0,0,0-5.412,2.782,7.624,7.624,0,0,0-2.04,5.731A6.694,6.694,0,0,0,24.571,37.778Z" transform="translate(1061 -13)" fill="#fff"/>
  </g>
</svg>
