<svg xmlns="http://www.w3.org/2000/svg" width="50" height="50" viewBox="0 0 50 50">
  <g id="icon_instagram" transform="translate(-390 -2951)">
    <rect id="長方形_11" data-name="長方形 11" width="50" height="50" transform="translate(390 2951)" fill="#bbb" opacity="0.002"/>
    <path id="instagram" d="M15.208,39.268A7.833,7.833,0,1,0,23.042,47.1,7.821,7.821,0,0,0,15.208,39.268Zm0,12.926A5.093,5.093,0,1,1,20.3,47.1a5.1,5.1,0,0,1-5.093,5.093Zm9.981-13.247a1.827,1.827,0,1,1-1.827-1.827A1.823,1.823,0,0,1,25.189,38.948ZM30.378,40.8a9.042,9.042,0,0,0-2.468-6.4,9.1,9.1,0,0,0-6.4-2.468c-2.523-.143-10.083-.143-12.606,0a9.088,9.088,0,0,0-6.4,2.461A9.072,9.072,0,0,0,.032,40.8c-.143,2.523-.143,10.083,0,12.606A9.042,9.042,0,0,0,2.5,59.8a9.113,9.113,0,0,0,6.4,2.468c2.523.143,10.083.143,12.606,0a9.042,9.042,0,0,0,6.4-2.468,9.1,9.1,0,0,0,2.468-6.4c.143-2.523.143-10.076,0-12.6ZM27.119,56.108a5.156,5.156,0,0,1-2.9,2.9c-2.011.8-6.784.614-9.006.614s-7,.177-9.006-.614a5.156,5.156,0,0,1-2.9-2.9c-.8-2.011-.614-6.784-.614-9.006s-.177-7,.614-9.006a5.156,5.156,0,0,1,2.9-2.9c2.011-.8,6.784-.614,9.006-.614s7-.177,9.006.614a5.156,5.156,0,0,1,2.9,2.9c.8,2.011.614,6.784.614,9.006S27.916,54.1,27.119,56.108Z" transform="translate(400.075 2929.175)" fill="#fff"/>
  </g>
</svg>
