<svg xmlns="http://www.w3.org/2000/svg" width="151.748" height="106.698" viewBox="0 0 151.748 106.698">
  <g id="グループ_19" data-name="グループ 19" transform="translate(-525 -1019)">
    <path id="youtube" d="M163.51,80.695a19.067,19.067,0,0,0-13.416-13.5C138.26,64,90.807,64,90.807,64S43.354,64,31.52,67.191A19.068,19.068,0,0,0,18.1,80.695c-3.171,11.911-3.171,36.762-3.171,36.762s0,24.851,3.171,36.762A18.783,18.783,0,0,0,31.52,167.506C43.354,170.7,90.807,170.7,90.807,170.7s47.453,0,59.287-3.191a18.783,18.783,0,0,0,13.416-13.287c3.171-11.911,3.171-36.762,3.171-36.762S166.681,92.606,163.51,80.695ZM75.287,140.02V94.894l39.661,22.563Z" transform="translate(510.067 955)" fill="rgba(255,0,0,0.51)"/>
  </g>
</svg>
